<svg xmlns="http://www.w3.org/2000/svg" xmlns:xlink="http://www.w3.org/1999/xlink" width="500" zoomAndPan="magnify" viewBox="0 0 375 374.999991" height="500" preserveAspectRatio="xMidYMid meet" version="1.0"><defs><g/><clipPath id="b8bad26927"><path d="M 23.582031 158.941406 L 77.007812 158.941406 L 77.007812 212.242188 L 23.582031 212.242188 Z M 23.582031 158.941406 " clip-rule="nonzero"/></clipPath><clipPath id="f19b53b258"><path d="M 6.640625 182.226562 L 36.449219 182.226562 L 36.449219 212.242188 L 6.640625 212.242188 Z M 6.640625 182.226562 " clip-rule="nonzero"/></clipPath></defs><g clip-path="url(#b8bad26927)"><path fill="#000000" d="M 77.007812 165.214844 L 30.097656 212.257812 L 23.84375 205.984375 L 70.753906 158.941406 L 77.007812 165.214844 " fill-opacity="1" fill-rule="nonzero"/></g><g clip-path="url(#f19b53b258)"><path fill="#000000" d="M 30.097656 212.257812 L 6.640625 188.734375 L 12.894531 182.464844 L 36.351562 205.984375 L 30.097656 212.257812 " fill-opacity="1" fill-rule="nonzero"/></g><g fill="#000000" fill-opacity="1"><g transform="translate(88.081717, 207.345168)"><g><path d="M 20.40625 0.828125 C 16.875 0.828125 13.800781 0.1875 11.1875 -1.09375 C 8.582031 -2.375 6.566406 -4.160156 5.140625 -6.453125 C 3.722656 -8.742188 3.015625 -11.398438 3.015625 -14.421875 L 9.0625 -14.421875 C 9.0625 -12.546875 9.492188 -10.816406 10.359375 -9.234375 C 11.234375 -7.660156 12.503906 -6.398438 14.171875 -5.453125 C 15.847656 -4.515625 17.925781 -4.046875 20.40625 -4.046875 C 23.65625 -4.046875 26.171875 -4.820312 27.953125 -6.375 C 29.742188 -7.9375 30.640625 -9.882812 30.640625 -12.21875 C 30.640625 -14.144531 30.222656 -15.691406 29.390625 -16.859375 C 28.566406 -18.023438 27.457031 -18.972656 26.0625 -19.703125 C 24.664062 -20.441406 23.0625 -21.082031 21.25 -21.625 C 19.445312 -22.175781 17.5625 -22.796875 15.59375 -23.484375 C 11.882812 -24.773438 9.132812 -26.367188 7.34375 -28.265625 C 5.5625 -30.160156 4.671875 -32.644531 4.671875 -35.71875 C 4.628906 -38.28125 5.222656 -40.554688 6.453125 -42.546875 C 7.691406 -44.546875 9.441406 -46.101562 11.703125 -47.21875 C 13.972656 -48.34375 16.664062 -48.90625 19.78125 -48.90625 C 22.851562 -48.90625 25.519531 -48.332031 27.78125 -47.1875 C 30.050781 -46.039062 31.816406 -44.457031 33.078125 -42.4375 C 34.335938 -40.425781 34.988281 -38.140625 35.03125 -35.578125 L 28.984375 -35.578125 C 28.984375 -36.910156 28.640625 -38.226562 27.953125 -39.53125 C 27.265625 -40.832031 26.222656 -41.894531 24.828125 -42.71875 C 23.429688 -43.539062 21.679688 -43.953125 19.578125 -43.953125 C 16.960938 -44.003906 14.816406 -43.34375 13.140625 -41.96875 C 11.472656 -40.59375 10.640625 -38.691406 10.640625 -36.265625 C 10.640625 -34.203125 11.222656 -32.617188 12.390625 -31.515625 C 13.566406 -30.421875 15.207031 -29.519531 17.3125 -28.8125 C 19.414062 -28.101562 21.84375 -27.289062 24.59375 -26.375 C 26.882812 -25.550781 28.941406 -24.585938 30.765625 -23.484375 C 32.597656 -22.390625 34.03125 -20.972656 35.0625 -19.234375 C 36.09375 -17.492188 36.609375 -15.269531 36.609375 -12.5625 C 36.609375 -10.28125 36.007812 -8.117188 34.8125 -6.078125 C 33.625 -4.035156 31.828125 -2.375 29.421875 -1.09375 C 27.023438 0.1875 24.019531 0.828125 20.40625 0.828125 Z M 20.40625 0.828125 "/></g></g></g><g fill="#000000" fill-opacity="1"><g transform="translate(138.413075, 207.345168)"><g><path d="M 5.078125 0 L 5.078125 -48.078125 L 10.859375 -48.078125 L 10.859375 0 Z M 5.078125 0 "/></g></g></g><g fill="#000000" fill-opacity="1"><g transform="translate(164.989554, 207.345168)"><g><path d="M 5.078125 0 L 5.078125 -48.078125 L 11.8125 -48.078125 L 29.125 -14.5625 L 46.296875 -48.078125 L 53.09375 -48.078125 L 53.09375 0 L 47.328125 0 L 47.328125 -37.78125 L 31.25 -6.875 L 26.921875 -6.875 L 10.859375 -37.703125 L 10.859375 0 Z M 5.078125 0 "/></g></g></g><g fill="#000000" fill-opacity="1"><g transform="translate(233.789341, 207.345168)"><g><path d="M 5.078125 0 L 5.078125 -48.078125 L 20.875 -48.078125 C 24.632812 -48.078125 27.726562 -47.457031 30.15625 -46.21875 C 32.582031 -44.988281 34.378906 -43.316406 35.546875 -41.203125 C 36.710938 -39.097656 37.296875 -36.71875 37.296875 -34.0625 C 37.296875 -31.457031 36.722656 -29.097656 35.578125 -26.984375 C 34.429688 -24.878906 32.644531 -23.195312 30.21875 -21.9375 C 27.789062 -20.6875 24.675781 -20.0625 20.875 -20.0625 L 10.859375 -20.0625 L 10.859375 0 Z M 10.859375 -24.9375 L 20.75 -24.9375 C 24.59375 -24.9375 27.328125 -25.75 28.953125 -27.375 C 30.578125 -29 31.390625 -31.226562 31.390625 -34.0625 C 31.390625 -36.945312 30.578125 -39.203125 28.953125 -40.828125 C 27.328125 -42.453125 24.59375 -43.265625 20.75 -43.265625 L 10.859375 -43.265625 Z M 10.859375 -24.9375 "/></g></g></g><g fill="#000000" fill-opacity="1"><g transform="translate(284.189385, 207.345168)"><g><path d="M 5.078125 0 L 5.078125 -48.078125 L 10.859375 -48.078125 L 10.859375 -4.609375 L 33.25 -4.609375 L 33.25 0 Z M 5.078125 0 "/></g></g></g><g fill="#000000" fill-opacity="1"><g transform="translate(330.881991, 207.345168)"><g><path d="M 5.078125 0 L 5.078125 -48.078125 L 34.828125 -48.078125 L 34.828125 -43.34375 L 10.859375 -43.34375 L 10.859375 -26.578125 L 32.765625 -26.578125 L 32.765625 -21.90625 L 10.859375 -21.90625 L 10.859375 -4.734375 L 34.828125 -4.734375 L 34.828125 0 Z M 5.078125 0 "/></g></g></g></svg>